<svg xmlns="http://www.w3.org/2000/svg" viewBox="0 0 280.71 81.5"><defs><style>.cls-1,.cls-2,.cls-3,.cls-4{fill:#fff;stroke:#fff;}.cls-1,.cls-2{stroke-linejoin:round;}.cls-1{stroke-width:2.03px;}.cls-2{stroke-width:2.02px;}.cls-3,.cls-4{font-size:21px;stroke-miterlimit:10;font-family:MyriadPro-Regular, Myriad Pro;letter-spacing:0.22em;}.cls-3{stroke-width:2px;}.cls-4{stroke-width:3px;}</style></defs><title>Recurso 4</title><g id="Capa_2" data-name="Capa 2"><g id="Capa_1-2" data-name="Capa 1"><rect class="cls-1" x="110.39" y="12.65" width="56.2" height="56.2" transform="translate(11.74 109.86) rotate(-45)"/><polyline class="cls-1" points="117.32 51.9 113.61 55.61 98.75 40.75 113.61 25.89 117.65 29.93"/><polyline class="cls-1" points="159.65 29.61 163.36 25.89 178.22 40.75 163.36 55.61 159.21 51.47"/><line class="cls-1" x1="138.48" y1="64.34" x2="138.48" y2="80.49"/><line class="cls-1" x1="138.48" y1="1.02" x2="138.48" y2="17.18"/><line class="cls-1" x1="102.46" y1="37.04" x2="117.32" y2="51.9"/><line class="cls-1" x1="106.18" y1="33.32" x2="114.74" y2="41.89"/><line class="cls-1" x1="109.89" y1="29.61" x2="115.54" y2="35.26"/><line class="cls-1" x1="161.42" y1="46.25" x2="167.08" y2="51.9"/><line class="cls-1" x1="162.08" y1="39.47" x2="170.79" y2="48.18"/><line class="cls-1" x1="159.64" y1="29.61" x2="174.51" y2="44.47"/><line class="cls-1" x1="138.48" y1="80.49" x2="157.33" y2="61.64"/><circle class="cls-1" cx="138.48" cy="40.75" r="10.51"/><circle class="cls-1" cx="138.48" cy="40.75" r="14.77"/><circle class="cls-1" cx="138.48" cy="40.75" r="19"/><circle class="cls-1" cx="138.48" cy="40.75" r="23.59"/><line class="cls-2" x1="165" y1="16.39" x2="275.37" y2="16.39"/><line class="cls-2" y1="66.39" x2="110.37" y2="66.39"/><text class="cls-3" transform="translate(189.62 47.95)">FORUM</text><text class="cls-4" transform="translate(23.62 46.95)">CINE</text></g></g></svg>